# xmcd
#
# Track frame offsets:
#	150
#	13859
#	29264
#	42213
#	58146
#	77703
#	92314
#	103962
#	118562
#	132053
#	145081
#	167646
#
# Disc length: 2634 seconds
#
# Revision: 0
# Processed by: cddbd v1.5.2PL0 Copyright (c) Steve Scherf et al.
# Submitted via: dBpowerAMP V4.0
#
DISCID=960a480c
DTITLE=Vox Angeli - Gloria
DYEAR=2009
DGENRE=Pop
TTITLE0=Les anges dans nos campagnes
TTITLE1=Let it be
TTITLE2=Noël des enfants du monde
TTITLE3=Amazing grace
TTITLE4=Chanter
TTITLE5=Trouver dans ma vie ta présence
TTITLE6=Le merle
TTITLE7=2coute dans le vent
TTITLE8=Je crois en vous
TTITLE9=Prendre un enfatn par la main
TTITLE10=La quête
TTITLE11=DATA
EXTD=
EXTT0=
EXTT1=
EXTT2=
EXTT3=
EXTT4=
EXTT5=
EXTT6=
EXTT7=
EXTT8=
EXTT9=
EXTT10=
EXTT11=
PLAYORDER=
